<?xml version="1.0" encoding="utf-8"?>
<!-- Generator: Adobe Illustrator 24.3.0, SVG Export Plug-In . SVG Version: 6.00 Build 0)  -->
<svg version="1.1" id="Layer_1" xmlns="http://www.w3.org/2000/svg" xmlns:xlink="http://www.w3.org/1999/xlink" x="0px" y="0px"
	 viewBox="0 0 347 175" style="enable-background:new 0 0 347 175;" xml:space="preserve">
<style type="text/css">
	.st0{fill:#666666;}
	.st1{fill:#4AB5C1;}
</style>
<g>
	<g>
		<path class="st0" d="M103.7,96.77c0,0.49-0.1,0.95-0.31,1.39c-0.21,0.44-0.48,0.83-0.83,1.17c-0.35,0.34-0.75,0.6-1.21,0.79
			c-0.46,0.19-0.95,0.28-1.46,0.28l-3.37,0.01c-0.7,0-1.33-0.17-1.91-0.51c-0.58-0.35-1.05-0.81-1.4-1.39
			c-0.32,0.58-0.77,1.05-1.35,1.39c-0.58,0.35-1.21,0.53-1.91,0.53l-3.37,0.01c-0.53,0-1.03-0.09-1.5-0.29
			c-0.46-0.2-0.87-0.47-1.22-0.81c-0.35-0.35-0.62-0.75-0.82-1.21c-0.2-0.46-0.3-0.96-0.3-1.49l-0.07-20.16
			c0-0.23,0.11-0.35,0.35-0.35l2.88-0.01c0.23,0,0.35,0.12,0.35,0.35l0.07,20.51l5.11-0.02l-0.07-20.51c0-0.23,0.11-0.35,0.35-0.35
			l2.88-0.01c0.23,0,0.35,0.12,0.35,0.35l0.07,20.51l5.11-0.02l-0.07-20.51c0-0.23,0.11-0.35,0.35-0.35l2.88-0.01
			c0.23,0,0.35,0.12,0.35,0.35L103.7,96.77z"/>
		<path class="st0" d="M119.77,99.98c0,0.23-0.12,0.35-0.35,0.35l-2.85,0.01c-0.23,0-0.35-0.11-0.35-0.35l-0.03-10.08l-5.11,0.02
			l0.03,10.08c0,0.23-0.13,0.35-0.38,0.35l-2.85,0.01c-0.23,0-0.35-0.11-0.35-0.35l-0.08-23.63c0-0.23,0.11-0.35,0.35-0.35
			l2.85-0.01c0.25,0,0.38,0.11,0.38,0.35l0.03,10.08l5.11-0.02l-0.03-10.08c0-0.23,0.11-0.35,0.35-0.35l2.85-0.01
			c0.23,0,0.35,0.12,0.35,0.35L119.77,99.98z"/>
		<path class="st0" d="M135.37,99.93c0,0.23-0.12,0.35-0.35,0.35l-2.88,0.01c-0.23,0-0.35-0.11-0.35-0.35l-0.03-10.11l-4.62,0.02
			l0.03,10.11c0,0.23-0.13,0.35-0.38,0.35l-2.85,0.01c-0.23,0-0.35-0.11-0.35-0.35l-0.07-20.16c0-0.53,0.09-1.03,0.29-1.5
			c0.2-0.46,0.47-0.87,0.81-1.22c0.35-0.35,0.75-0.62,1.21-0.82c0.46-0.2,0.96-0.3,1.49-0.3l4.14-0.01c0.53,0,1.03,0.1,1.5,0.29
			c0.46,0.2,0.87,0.47,1.22,0.81c0.35,0.35,0.62,0.75,0.82,1.21c0.2,0.46,0.3,0.96,0.3,1.49L135.37,99.93z M131.72,79.43l-4.62,0.02
			l0.02,6.95l4.62-0.02L131.72,79.43z"/>
		<path class="st0" d="M148.96,78.99c0,0.26-0.11,0.38-0.35,0.38l-3.58,0.01l0.07,20.51c0,0.23-0.12,0.35-0.35,0.35l-2.85,0.01
			c-0.23,0-0.35-0.11-0.35-0.35l-0.07-20.51l-3.58,0.01c-0.23,0-0.35-0.13-0.35-0.38l-0.01-2.75c0-0.23,0.11-0.35,0.35-0.35
			l10.71-0.04c0.23,0,0.35,0.12,0.35,0.35L148.96,78.99z"/>
		<path class="st0" d="M154.08,81.34c0,0.23-0.12,0.35-0.35,0.35l-2.15,0.01c-0.23,0-0.35-0.11-0.35-0.35l-0.02-5.11
			c0-0.23,0.11-0.35,0.35-0.35l2.85-0.01c0.25,0,0.38,0.11,0.38,0.35L154.08,81.34z"/>
		<path class="st0" d="M170.05,96.34c0,0.53-0.1,1.03-0.29,1.5c-0.2,0.46-0.46,0.87-0.8,1.22c-0.33,0.35-0.73,0.62-1.2,0.82
			c-0.46,0.2-0.96,0.3-1.49,0.3l-4.17,0.01c-0.53,0-1.03-0.09-1.5-0.29c-0.46-0.2-0.87-0.47-1.2-0.81c-0.34-0.35-0.61-0.75-0.8-1.21
			c-0.2-0.46-0.3-0.96-0.3-1.49l-0.01-2.29c0-0.23,0.11-0.35,0.35-0.35l2.85-0.01c0.25,0,0.38,0.11,0.38,0.35l0.01,2.64l4.62-0.02
			l-0.02-4.83l-7.98-5.85c-0.05-0.07-0.1-0.16-0.16-0.26c-0.06-0.1-0.09-0.21-0.09-0.33l-0.02-5.73c0-0.53,0.09-1.03,0.29-1.5
			c0.2-0.46,0.46-0.87,0.8-1.22c0.33-0.35,0.73-0.62,1.2-0.82c0.46-0.2,0.96-0.3,1.49-0.3l4.17-0.01c0.53,0,1.03,0.1,1.5,0.29
			c0.46,0.2,0.86,0.47,1.2,0.81c0.34,0.35,0.6,0.75,0.8,1.21c0.2,0.46,0.3,0.96,0.3,1.49l0.01,2.29c0,0.23-0.12,0.35-0.35,0.35
			l-2.85,0.01c-0.23,0-0.35-0.11-0.35-0.35l-0.01-2.64l-4.62,0.02l0.02,4.8l7.91,5.85c0.19,0.14,0.28,0.34,0.28,0.59L170.05,96.34z"
			/>
		<path class="st0" d="M191.09,89.28c0,0.23-0.13,0.35-0.38,0.35l-5.32,0.02l0.03,10.11c0,0.23-0.13,0.35-0.38,0.35l-2.85,0.01
			c-0.23,0-0.35-0.11-0.35-0.35l-0.07-20.16c0-0.53,0.09-1.03,0.29-1.5c0.2-0.46,0.47-0.87,0.81-1.22c0.35-0.35,0.75-0.62,1.21-0.82
			c0.46-0.2,0.96-0.3,1.49-0.3l5.07-0.02c0.25,0,0.38,0.11,0.38,0.35l0.01,2.75c0,0.26-0.13,0.38-0.38,0.38l-5.32,0.02l0.02,6.95
			l5.32-0.02c0.25,0,0.38,0.11,0.38,0.35L191.09,89.28z"/>
		<path class="st0" d="M205.85,96.22c0,0.53-0.1,1.03-0.29,1.5c-0.2,0.46-0.46,0.87-0.8,1.22c-0.33,0.35-0.73,0.62-1.2,0.82
			c-0.46,0.2-0.96,0.3-1.49,0.3l-4.17,0.01c-0.53,0-1.03-0.09-1.5-0.29c-0.46-0.2-0.87-0.47-1.2-0.81c-0.34-0.35-0.61-0.75-0.8-1.21
			c-0.2-0.46-0.3-0.96-0.3-1.49l-0.06-16.68c0-0.53,0.09-1.03,0.29-1.5c0.2-0.46,0.46-0.87,0.8-1.22c0.33-0.35,0.73-0.62,1.2-0.82
			c0.46-0.2,0.96-0.3,1.49-0.3l4.17-0.01c0.53,0,1.03,0.1,1.5,0.29c0.46,0.2,0.86,0.47,1.2,0.81c0.34,0.35,0.6,0.75,0.8,1.21
			c0.2,0.46,0.3,0.96,0.3,1.49L205.85,96.22z M202.24,79.2l-4.62,0.02l0.06,17.41l4.62-0.02L202.24,79.2z"/>
		<path class="st0" d="M221.46,99.74c0,0.16-0.12,0.24-0.35,0.24l-3.2,0.01c-0.23,0-0.35-0.11-0.35-0.35l-0.03-8.2
			c0-0.7-0.19-1.19-0.56-1.48c-0.37-0.29-0.84-0.43-1.39-0.43l-2.71,0.01l0.03,10.11c0,0.23-0.12,0.35-0.35,0.35l-2.88,0.01
			c-0.23,0-0.35-0.11-0.35-0.35l-0.08-23.63c0-0.23,0.11-0.35,0.35-0.35l7.61-0.03c0.53,0,1.03,0.1,1.5,0.29
			c0.46,0.2,0.87,0.47,1.22,0.81c0.35,0.35,0.62,0.75,0.82,1.21c0.2,0.46,0.3,0.96,0.3,1.49l0.02,5.21c0,0.65-0.13,1.25-0.41,1.79
			c-0.28,0.55-0.66,0.99-1.14,1.34c0.49,0.32,0.87,0.76,1.15,1.3c0.28,0.54,0.42,1.14,0.42,1.79l0.03,7.68
			c0,0.39,0.06,0.65,0.18,0.76C221.4,99.48,221.46,99.6,221.46,99.74z M217.5,79.15l-4.66,0.02l0.02,6.95l4.66-0.02L217.5,79.15z"/>
	</g>
	<g>
		<path class="st0" d="M69.84,89.45c-4.99-8.28-10.96-12.18-19.24-10.84c-4.14,0.73-7.55,1.95-11.08,3.53
			c-3.78,1.7-7.43,3.17-11.33,3.65c-2.56,0.37-2.8,1.34-2.19,3.17c0.73,1.83,2.92,4.75,7.31,5.36
			c-8.28,12.67-18.03,30.69-21.56,41.53c-1.1,3.41-1.7,5.72-1.7,7.8c0,1.95,0.97,3.65,3.17,6.58c3.05,3.9,5.36,5.97,9.26,5.97
			c1.34,0,2.56-0.24,4.02-0.73c26.8-9.01,46.16-34.23,46.16-53.84C72.65,97.37,71.67,92.5,69.84,89.45z M21.49,147.43
			c-1.22,0.49-1.83,0.24-1.83-0.85c0-0.85,0.12-1.83,0.61-3.53c2.56-8.89,9.62-21.56,19.12-37.51c2.8-4.99,3.78-9.5,3.41-12.55
			c3.78-1.34,10.84-5.12,14.62-5.12c1.46,0,3.29,0.73,4.51,2.68c0.97,1.58,1.46,3.78,1.46,6.7
			C63.39,111.74,48.41,137.2,21.49,147.43z"/>
		<path class="st0" d="M266.9,135.37c-1.22-2.68-3.04-2.19-4.14,0.12c-3.65,8.53-10.6,15.96-14.98,15.96
			c-1.71,0-2.68-2.07-2.68-5.24c0-1.46,0.37-3.65,0.85-5.24c2.19-6.21,8.16-14.49,13.4-20.58c1.46-1.58,2.07-3.17,2.07-4.63
			c0-3.05-2.07-6.33-3.65-8.4c-1.46-1.95-3.17-1.1-5.12,0.12c-4.02,2.56-7.19,4.26-10.6,5.12c1.34-4.02,2.31-7.67,2.31-10.23
			c0-2.68-0.97-4.26-3.53-4.26c-4.14,0.12-12.3,9.01-12.3,15.47c0,2.19,1.22,4.02,3.41,5.36c-6.46,14.86-19.12,32.4-31.3,32.4
			c-3.41,0-5.6-3.65-5.6-9.26c0-2.19,0.37-4.75,1.1-7.19c2.8,1.95,5.72,2.68,8.65,2.68c5.36,0,9.99-3.05,13.52-7.43
			c3.29-4.26,5.12-9.26,5.12-12.79c0-1.46-0.49-2.92-1.1-4.02c-1.95-2.44-4.26-4.26-7.55-6.33c-1.22-0.73-2.56-0.97-4.14-0.97
			c-6.94,0-16.93,6.82-23.26,19.25c-1.77,3.54-2.89,7.08-3.37,10.39c-4.38,8.1-10.66,15.92-14.77,15.92c-1.58,0-2.44-1.58-2.44-4.14
			c0-4.51,4.14-12.55,8.04-18.76c3.9-6.82,6.09-10.72,6.09-13.4c0-4.63-3.29-8.89-6.82-8.89c-4.38,0-10.23,4.02-15.47,8.89
			c0.12-0.73,0.12-1.58,0.12-2.44c0-1.95-0.49-3.9-1.58-5.72c-1.22-2.19-3.05-2.31-4.63,0c-7.38,11.07-16.5,27.6-19.07,34.71
			c-3.76,5.48-7.97,9.74-11.01,9.74c-1.58,0-2.44-1.58-2.44-4.14c0-4.51,4.14-12.55,8.04-18.76c3.9-6.82,6.09-10.72,6.09-13.4
			c0-4.63-3.29-8.89-6.82-8.89c-4.38,0-10.23,4.02-15.47,8.89c0.12-0.73,0.12-1.58,0.12-2.44c0-1.95-0.49-3.9-1.58-5.72
			c-1.22-2.19-3.05-2.31-4.63,0c-7.51,11.27-16.84,28.21-19.21,35.09c-3.46,5.24-7.59,9.24-11,9.24c-1.34,0-1.83-1.1-1.83-3.04
			c0-1.95,0.61-4.51,1.71-7.31c2.07-4.87,7.67-14.01,9.99-19.24c3.17-6.09,2.19-11.33-0.12-13.76c-1.58-1.83-3.05-1.58-4.87,0.85
			c-4.51,6.33-12.3,20.46-15.35,28.99c-0.97,3.17-1.46,5.72-1.46,8.04c0,6.09,3.29,10.35,10.72,10.35c3.86,0,8.08-1.49,11.72-4.05
			c0.46,1.17,1.15,2.18,2.04,3.08c1.95,1.95,3.53,1.22,4.38-0.73c4.99-10.96,10.47-22.9,17.17-29.96
			c6.7-7.55,12.67-10.96,13.76-10.96c0.85,0-1.1,3.17-3.65,7.19c-4.75,7.55-10.35,18.76-10.35,25.33c0,6.33,3.53,10.47,11.69,10.47
			c3.81,0,8.05-1.76,11.72-4.4c0.46,1.16,1.14,2.16,2.04,3.06c1.95,1.95,3.53,1.22,4.38-0.73c4.99-10.96,10.47-22.9,17.17-29.96
			c6.7-7.55,12.67-10.96,13.76-10.96c0.85,0-1.1,3.17-3.65,7.19c-4.75,7.55-10.35,18.76-10.35,25.33c0,6.33,3.53,10.47,11.69,10.47
			c6.05,0,13.18-4.43,17.39-9.75c2.49,5.57,7.91,9.23,15.86,9.14c14.86-0.24,27.89-15.1,37.88-35.93c2.68-0.12,5.72-0.61,9.01-2.07
			c-4.87,5.72-9.62,12.42-11.69,19c-0.85,2.56-1.22,4.75-1.22,6.7c0,7.19,4.26,12.55,11.94,12.55c7.19,0,16.2-5.24,19.24-12.79
			C267.87,140.12,267.51,136.71,266.9,135.37z M198.93,128.18c4.99-9.87,13.28-16.93,15.47-15.23c1.22,0.97-1.58,6.94-4.99,11.33
			c-2.44,3.29-5.72,6.82-8.89,6.82c-0.85,0-1.71-0.24-2.68-0.73C198.08,129.77,198.32,129.28,198.93,128.18z"/>
	</g>
	<g>
		<path class="st1" d="M335.03,57.52c-3.59-9.04-12.32-15-21.7-14.39c-3.16,0.21-6.27,1.35-9.39,2.06
			c-3.24-17.83-11.07-26.39-24.61-26.85c-15.17-0.52-23.65,6.28-27.83,22.3c-10.07,1.61-13.71,3.55-17.43,9.25
			c-7.7,11.79-5.24,24.5,6.5,32.31c3.18,2.11,6.72,3.69,10.41,5.59c0.06,0.01,0.13,0.01,0.19,0.03c0.28,0.08,0.55,0.15,0.84,0.2
			c0.03,0,0.05,0,0.09,0.01c0.59,0.03,1.18,0.06,1.77,0.04c0.05,0,0.2-0.01,0.38-0.03c0.19-0.03,0.37-0.07,0.51-0.09
			c0.13-0.02,0.22-0.03,0.28-0.04c0.01,0,0.01-0.01,0.02-0.01c0.44-0.14,0.87-0.28,1.31-0.42c0.55-0.44,1.14-0.79,1.67-0.96
			c8.85-2.79,17.3-2.82,25.46-0.89c0.03-0.28,0.1-0.56,0.17-0.84c-0.12-0.06-0.23-0.12-0.35-0.19c-0.05-0.03-0.11-0.06-0.17-0.1
			c-0.48-0.19-0.96-0.38-1.47-0.57c-0.38-0.14-0.71-0.32-1.01-0.51c-0.57-0.23-1.11-0.48-1.61-0.84c-0.32-0.23-0.63-0.48-0.93-0.75
			c-0.15-0.08-0.29-0.16-0.45-0.24c-7.32,1.19-13.61-0.51-19.55-4.25c-0.1,0.06-0.2,0.12-0.3,0.18c0.57,0.58,1.15,1.16,1.78,1.68
			c1.18,0.97,2.47,1.81,3.78,2.75c-9.92,4.71-13.88,3.99-22.62-3.99c-6.76-6.16-8.42-12.91-5.29-21.41
			c3.05-8.28,8.33-12.37,16.37-12.56c0.66,1.67,1.34,3.39,2.29,5.78c0.1-0.01,0.2-0.01,0.3-0.01c0.07,0,0.13,0.01,0.2,0.01
			c0.02-15.94,5.11-23.13,17.08-25.32c15.7-2.87,22.37,2.53,30.29,24.6c0.23,0.09,0.45,0.19,0.66,0.31c2.44-0.62,4.85-1.4,7.32-1.74
			c8.68-1.21,16.74,3.17,20.37,10.85c3.87,8.2,2.73,17.71-4.28,23.01c-3.98,3.01-8.51,5.7-13.22,7.56c-0.68,0.52-1.55,0.85-2.6,0.92
			c-0.43,0.17-0.89,0.31-1.42,0.36c-0.23,0.05-0.48,0.08-0.74,0.1c-0.04,0.01-0.09,0.01-0.13,0.02c-0.09,0.03-0.18,0.07-0.28,0.1
			c-0.37,0.13-0.78,0.2-1.22,0.24c-0.16,0.04-0.32,0.07-0.48,0.09c-0.3,0.15-0.61,0.27-0.94,0.33c-0.91,0.33-1.81,0.69-2.65,1.16
			c-0.49,0.14-1.2,0.54-1.05,0.62c-0.36,0.23-0.72,0.48-1.06,0.75c-2.97,2.29-4.69,5.65-5.79,9.17c-2.49,8-3.24,16.77-2.79,25.1
			c0.16,3.02,0.53,6.03,1.04,9.02c-1.59-0.54-3.21-0.99-4.87-1.3c-2.29-0.43-4.62-0.67-6.94-0.68c-1.88-0.01-5.12-0.41-5.83,1.84
			c-0.29,0.91,0.5,1.93,1.45,1.9c4.54-0.14,8.5,1.12,12.64,2.82c1.7,0.7,3.5,1.34,5.32,1.67c0.26,0.13,0.56,0.17,0.86,0.13
			c0.1,0.01,0.19,0.03,0.29,0.04c0.23,0.2,0.55,0.34,0.95,0.34c1.25,0.01,3.07,0.38,4.18-0.33c0.42-0.27,0.69-0.71,0.89-1.21
			c0.14-0.19,0.23-0.39,0.28-0.61c0.31-0.52,0.44-1.14,0.34-1.79c0.06-0.48-0.1-0.88-0.39-1.16c-0.55-1.11-1.47-2.15-2.04-3.2
			c-1.59-2.96-2.51-6.24-3-9.55c-0.51-3.41-0.53-6.9-0.37-10.33c0.16-3.56,0.36-7.25,1.06-10.75c0.78-3.93,3.15-6.68,5.9-9.38
			c0.01,0.02,0.07,0.01,0.15-0.01c0.51-0.41,1.13-0.7,1.86-0.85c0.12-0.06,0.27-0.09,0.4-0.14c0.6-0.36,1.32-0.59,2.15-0.65
			c0.98-0.39,1.9-0.75,2.5-0.96c6.37-2.27,12.97-4.78,18.36-8.72C336.98,78.2,338.91,67.3,335.03,57.52z"/>
		<path class="st1" d="M294.97,131.45c0-0.02,0-0.03,0-0.05c0.01,0.02,0.01,0.03,0.02,0.05
			C294.98,131.45,294.97,131.45,294.97,131.45z"/>
		<path class="st1" d="M277.49,144.82c-2.75,0.75-4.32,1.88-4.47,3.25c-0.11,1.03,0.5,2.13,2.08,3.34
			c4.27,3.22,12.66,4.27,17.15,3.1c2.49-0.6,3.81-1.59,3.94-2.88c0.06-0.6-0.31-1.68-1.4-2.83
			C291.74,145.53,282.97,143.49,277.49,144.82z"/>
	</g>
</g>
</svg>
